<svg xmlns="http://www.w3.org/2000/svg" viewBox="0 0 820 430" font-family="'Red Hat Text', system-ui, sans-serif" role="img">
<defs><marker id="a" viewBox="0 0 10 10" refX="8.5" refY="5" markerWidth="9" markerHeight="9" orient="auto-start-reverse"><path d="M0,0 L10,5 L0,10 z" fill="#555"/></marker><marker id="am" viewBox="0 0 10 10" refX="8.5" refY="5" markerWidth="9" markerHeight="9" orient="auto-start-reverse"><path d="M0,0 L10,5 L0,10 z" fill="#cc0000"/></marker></defs>
<rect x="40" y="30" width="160" height="56" rx="9" fill="#ffffff" stroke="#111111" stroke-width="2"/>
<text x="120.0" y="63.5" font-size="13.5" font-weight="700" fill="#111111" text-anchor="middle">Checkout</text>
<rect x="280" y="30" width="160" height="56" rx="9" fill="#ffffff" stroke="#111111" stroke-width="2"/>
<text x="360.0" y="63.5" font-size="13.5" font-weight="700" fill="#111111" text-anchor="middle">Payments</text>
<rect x="280" y="130" width="160" height="56" rx="9" fill="#ffffff" stroke="#111111" stroke-width="2"/>
<text x="360.0" y="163.5" font-size="13.5" font-weight="700" fill="#111111" text-anchor="middle">Shipping</text>
<rect x="520" y="30" width="160" height="56" rx="9" fill="#ffffff" stroke="#111111" stroke-width="2"/>
<text x="600.0" y="63.5" font-size="13.5" font-weight="700" fill="#111111" text-anchor="middle">Inventory</text>
<rect x="280" y="240" width="260" height="60" rx="9" fill="#fdecec" stroke="#ee0000" stroke-width="2"/>
<text x="410.0" y="268.0" font-size="13.5" font-weight="700" fill="#111111" text-anchor="middle">Span metrics processor</text>
<text x="410.0" y="285.0" font-size="11.5" fill="#555555" text-anchor="middle">rate · errors · duration</text>
<rect x="120" y="340" width="220" height="60" rx="9" fill="#ffffff" stroke="#999999" stroke-width="1.5"/>
<text x="230.0" y="368.0" font-size="13.5" font-weight="700" fill="#111111" text-anchor="middle">Service graph (Tempo)</text>
<text x="230.0" y="385.0" font-size="11.5" fill="#555555" text-anchor="middle">nodes and edges from spans</text>
<rect x="440" y="340" width="240" height="60" rx="9" fill="#111111" stroke="#111111" stroke-width="2"/>
<text x="560.0" y="368.0" font-size="13.5" font-weight="700" fill="#ffffff" text-anchor="middle">SLO alerting</text>
<text x="560.0" y="385.0" font-size="11.5" fill="#dddddd" text-anchor="middle">latency · traffic · errors · saturation</text>
<path d="M200,58 L280,58" fill="none" stroke="#555" stroke-width="2" marker-end="url(#a)"/>
<text x="246.0" y="52.0" font-size="11" fill="#ffffff" stroke="#ffffff" stroke-width="3" paint-order="stroke" text-anchor="middle">calls</text>
<text x="246.0" y="52.0" font-size="11" fill="#555" text-anchor="middle">calls</text>
<path d="M160,86 L280,150" fill="none" stroke="#555" stroke-width="2" marker-end="url(#a)"/>
<text x="210.0" y="133.0" font-size="11" fill="#ffffff" stroke="#ffffff" stroke-width="3" paint-order="stroke" text-anchor="middle">calls</text>
<text x="210.0" y="133.0" font-size="11" fill="#555" text-anchor="middle">calls</text>
<path d="M360,86 L440,86" fill="none" stroke="#555" stroke-width="2" marker-end="url(#a)"/>
<path d="M440,86 L520,58" fill="none" stroke="#555" stroke-width="2" marker-end="url(#a)"/>
<text x="500.0" y="67.0" font-size="11" fill="#ffffff" stroke="#ffffff" stroke-width="3" paint-order="stroke" text-anchor="middle">calls</text>
<text x="500.0" y="67.0" font-size="11" fill="#555" text-anchor="middle">calls</text>
<path d="M120,86 L330,240" fill="none" stroke="#555" stroke-width="2" marker-end="url(#a)"/>
<path d="M600,86 L490,240" fill="none" stroke="#555" stroke-width="2" marker-end="url(#a)"/>
<path d="M360,300 L260,340" fill="none" stroke="#555" stroke-width="2" marker-end="url(#a)"/>
<text x="316.0" y="314.0" font-size="11" fill="#ffffff" stroke="#ffffff" stroke-width="3" paint-order="stroke" text-anchor="middle">topology</text>
<text x="316.0" y="314.0" font-size="11" fill="#555" text-anchor="middle">topology</text>
<path d="M480,300 L540,340" fill="none" stroke="#b8650a" stroke-width="2" marker-end="url(#am)"/>
<text x="516.0" y="314.0" font-size="11" fill="#ffffff" stroke="#ffffff" stroke-width="3" paint-order="stroke" text-anchor="middle">golden signals</text>
<text x="516.0" y="314.0" font-size="11" fill="#b8650a" text-anchor="middle">golden signals</text>
<text x="410" y="20" font-size="14" fill="#b8650a" text-anchor="middle" font-weight="700">Spans become a graph; the graph feeds SLOs</text>
</svg>